{
  "accessors": [
    {
      "bufferView": 2,
      "componentType": 5126,
      "count": 3316,
      "max": [
        60.640598297119141,
        5.0575008392333984,
        59.227798461914062
      ],
      "min": [
        -134.12489318847656,
        -15.079401016235352,
        -25.301799774169922
      ],
      "type": "VEC3"
    },
    {
      "bufferView": 2,
      "byteOffset": 39792,
      "componentType": 5126,
      "count": 3316,
      "max": [
        1,
        1,
        1
      ],
      "min": [
        -1,
        -1,
        -1
      ],
      "type": "VEC3"
    },
    {
      "bufferView": 3,
      "componentType": 5126,
      "count": 3316,
      "max": [
        1,
        1,
        1,
        1
      ],
      "min": [
        -1,
        -1,
        -1,
        -1
      ],
      "type": "VEC4"
    },
    {
      "bufferView": 1,
      "componentType": 5126,
      "count": 3316,
      "max": [
        0.98486828804016113,
        0.9891279935836792
      ],
      "min": [
        0.0020000000949949026,
        0.0020000000949949026
      ],
      "type": "VEC2"
    },
    {
      "bufferView": 0,
      "componentType": 5125,
      "count": 7884,
      "max": [
        3315
      ],
      "min": [
        0
      ],
      "type": "SCALAR"
    },
    {
      "bufferView": 2,
      "byteOffset": 79584,
      "componentType": 5126,
      "count": 6776,
      "max": [
        133.48089599609375,
        5.430999755859375,
        59.637199401855469
      ],
      "min": [
        -190.193603515625,
        -15.079401016235352,
        -37.524402618408203
      ],
      "type": "VEC3"
    },
    {
      "bufferView": 2,
      "byteOffset": 160896,
      "componentType": 5126,
      "count": 6776,
      "max": [
        1,
        1,
        1
      ],
      "min": [
        -1,
        -1,
        -1
      ],
      "type": "VEC3"
    },
    {
      "bufferView": 3,
      "byteOffset": 53056,
      "componentType": 5126,
      "count": 6776,
      "max": [
        1,
        1,
        1,
        1
      ],
      "min": [
        -1,
        -1,
        -1,
        -1
      ],
      "type": "VEC4"
    },
    {
      "bufferView": 1,
      "byteOffset": 26528,
      "componentType": 5126,
      "count": 6776,
      "max": [
        0.98537373542785645,
        0.9891279935836792
      ],
      "min": [
        0.0034667700529098511,
        0.004526160191744566
      ],
      "type": "VEC2"
    },
    {
      "bufferView": 0,
      "byteOffset": 31536,
      "componentType": 5125,
      "count": 25788,
      "max": [
        6775
      ],
      "min": [
        0
      ],
      "type": "SCALAR"
    },
    {
      "bufferView": 2,
      "byteOffset": 242208,
      "componentType": 5126,
      "count": 3850,
      "max": [
        133.48089599609375,
        6.589599609375,
        59.637199401855469
      ],
      "min": [
        -140.3070068359375,
        -15.079401016235352,
        -37.524402618408203
      ],
      "type": "VEC3"
    },
    {
      "bufferView": 2,
      "byteOffset": 288408,
      "componentType": 5126,
      "count": 3850,
      "max": [
        1,
        1,
        1
      ],
      "min": [
        -1,
        -1,
        -1
      ],
      "type": "VEC3"
    },
    {
      "bufferView": 3,
      "byteOffset": 161472,
      "componentType": 5126,
      "count": 3850,
      "max": [
        1,
        1,
        1,
        1
      ],
      "min": [
        -1,
        -1,
        -1,
        -1
      ],
      "type": "VEC4"
    },
    {
      "bufferView": 1,
      "byteOffset": 80736,
      "componentType": 5126,
      "count": 3850,
      "max": [
        0.99296200275421143,
        0.9891282320022583
      ],
      "min": [
        0.00548967020586133,
        0.0020000000949949026
      ],
      "type": "VEC2"
    },
    {
      "bufferView": 0,
      "byteOffset": 134688,
      "componentType": 5125,
      "count": 12540,
      "max": [
        3849
      ],
      "min": [
        0
      ],
      "type": "SCALAR"
    },
    {
      "bufferView": 2,
      "byteOffset": 334608,
      "componentType": 5126,
      "count": 3574,
      "max": [
        133.48089599609375,
        5.4121999740600586,
        59.110500335693359
      ],
      "min": [
        -190.193603515625,
        -15.079401016235352,
        -37.524402618408203
      ],
      "type": "VEC3"
    },
    {
      "bufferView": 2,
      "byteOffset": 377496,
      "componentType": 5126,
      "count": 3574,
      "max": [
        1,
        1,
        1
      ],
      "min": [
        -1,
        -1,
        -1
      ],
      "type": "VEC3"
    },
    {
      "bufferView": 3,
      "byteOffset": 223072,
      "componentType": 5126,
      "count": 3574,
      "max": [
        1,
        1,
        1,
        1
      ],
      "min": [
        -1,
        -1,
        -1,
        -1
      ],
      "type": "VEC4"
    },
    {
      "bufferView": 1,
      "byteOffset": 111536,
      "componentType": 5126,
      "count": 3574,
      "max": [
        0.99799996614456177,
        0.9891282320022583
      ],
      "min": [
        0.00548967020586133,
        0.0043782200664281845
      ],
      "type": "VEC2"
    },
    {
      "bufferView": 0,
      "byteOffset": 184848,
      "componentType": 5125,
      "count": 11622,
      "max": [
        3573
      ],
      "min": [
        0
      ],
      "type": "SCALAR"
    }
  ],
  "asset": {
    "extras": {
      "author": "so_O (https://sketchfab.com/so_O)",
      "license": "CC-BY-4.0 (http://creativecommons.org/licenses/by/4.0/)",
      "source": "https://sketchfab.com/models/46a36e92379341d495fdcd7750a7ebc3",
      "title": "AK-47 (Assault rifle)"
    },
    "generator": "Sketchfab-3.19.6",
    "version": "2.0"
  },
  "bufferViews": [
    {
      "buffer": 0,
      "byteLength": 231336,
      "byteOffset": 0,
      "name": "floatBufferViews",
      "target": 34963
    },
    {
      "buffer": 0,
      "byteLength": 140128,
      "byteOffset": 231336,
      "byteStride": 8,
      "name": "floatBufferViews",
      "target": 34962
    },
    {
      "buffer": 0,
      "byteLength": 420384,
      "byteOffset": 371464,
      "byteStride": 12,
      "name": "floatBufferViews",
      "target": 34962
    },
    {
      "buffer": 0,
      "byteLength": 280256,
      "byteOffset": 791848,
      "byteStride": 16,
      "name": "floatBufferViews",
      "target": 34962
    }
  ],
  "buffers": [
    {
      "byteLength": 1072104,
      "uri": "scene.bin"
    }
  ],
  "images": [
    {
      "uri": "textures/material_0_baseColor.png"
    },
    {
      "uri": "textures/material_0_metallicRoughness.png"
    },
    {
      "uri": "textures/material_0_normal.jpeg"
    }
  ],
  "materials": [
    {
      "alphaMode": "BLEND",
      "doubleSided": true,
      "name": "material_0",
      "normalTexture": {
        "index": 2,
        "scale": 1,
        "texCoord": 0
      },
      "pbrMetallicRoughness": {
        "baseColorFactor": [
          1,
          1,
          1,
          1
        ],
        "baseColorTexture": {
          "index": 0,
          "texCoord": 0
        },
        "metallicFactor": 0.64329144940000005,
        "metallicRoughnessTexture": {
          "index": 1,
          "texCoord": 0
        },
        "roughnessFactor": 0.26865823609999995
      }
    }
  ],
  "meshes": [
    {
      "primitives": [
        {
          "attributes": {
            "NORMAL": 1,
            "POSITION": 0,
            "TANGENT": 2,
            "TEXCOORD_0": 3
          },
          "indices": 4,
          "material": 0,
          "mode": 4
        }
      ]
    },
    {
      "primitives": [
        {
          "attributes": {
            "NORMAL": 6,
            "POSITION": 5,
            "TANGENT": 7,
            "TEXCOORD_0": 8
          },
          "indices": 9,
          "material": 0,
          "mode": 4
        }
      ]
    },
    {
      "primitives": [
        {
          "attributes": {
            "NORMAL": 11,
            "POSITION": 10,
            "TANGENT": 12,
            "TEXCOORD_0": 13
          },
          "indices": 14,
          "material": 0,
          "mode": 4
        }
      ]
    },
    {
      "primitives": [
        {
          "attributes": {
            "NORMAL": 16,
            "POSITION": 15,
            "TANGENT": 17,
            "TEXCOORD_0": 18
          },
          "indices": 19,
          "material": 0,
          "mode": 4
        }
      ]
    }
  ],
  "nodes": [
    {
      "children": [
        1
      ],
      "name": "RootNode (gltf orientation matrix)",
      "rotation": [
        -0.70710678118654746,
        -0,
        -0,
        0.70710678118654757
      ]
    },
    {
      "children": [
        2
      ],
      "name": "RootNode (model correction matrix)"
    },
    {
      "children": [
        3,
        4,
        5,
        6
      ],
      "name": "LOW poly.obj.cleaner.materialmerger.gles"
    },
    {
      "mesh": 0,
      "name": ""
    },
    {
      "mesh": 1,
      "name": ""
    },
    {
      "mesh": 2,
      "name": ""
    },
    {
      "mesh": 3,
      "name": ""
    }
  ],
  "samplers": [
    {
      "magFilter": 9729,
      "minFilter": 9987,
      "wrapS": 10497,
      "wrapT": 10497
    }
  ],
  "scene": 0,
  "scenes": [
    {
      "name": "OSG_Scene",
      "nodes": [
        0
      ]
    }
  ],
  "textures": [
    {
      "sampler": 0,
      "source": 0
    },
    {
      "sampler": 0,
      "source": 1
    },
    {
      "sampler": 0,
      "source": 2
    }
  ]
}

