{
  "accessors": [
    {
      "bufferView": 2,
      "componentType": 5126,
      "count": 2466,
      "max": [
        1.6196000576019287,
        14.19789981842041,
        2.9804000854492188
      ],
      "min": [
        0.1395999938249588,
        8.7679004669189453,
        0.27039998769760132
      ],
      "type": "VEC3"
    },
    {
      "bufferView": 2,
      "byteOffset": 29592,
      "componentType": 5126,
      "count": 2466,
      "max": [
        0.99861037731170654,
        0.998546302318573,
        1
      ],
      "min": [
        -1,
        -1,
        -0.99861037731170654
      ],
      "type": "VEC3"
    },
    {
      "bufferView": 3,
      "componentType": 5126,
      "count": 2466,
      "max": [
        1,
        1,
        1,
        1
      ],
      "min": [
        -1,
        -1,
        -1,
        -1
      ],
      "type": "VEC4"
    },
    {
      "bufferView": 1,
      "componentType": 5126,
      "count": 2466,
      "max": [
        0.99479997158050537,
        0.99479997158050537
      ],
      "min": [
        0,
        0.0052000000141561031
      ],
      "type": "VEC2"
    },
    {
      "bufferView": 0,
      "componentType": 5125,
      "count": 9552,
      "max": [
        2465
      ],
      "min": [
        0
      ],
      "type": "SCALAR"
    },
    {
      "bufferView": 2,
      "byteOffset": 59184,
      "componentType": 5126,
      "count": 460,
      "max": [
        0.16470000147819519,
        21.813699722290039,
        2.4795999526977539
      ],
      "min": [
        -1.4253000020980835,
        14.573699951171875,
        0.88959997892379761
      ],
      "type": "VEC3"
    },
    {
      "bufferView": 2,
      "byteOffset": 64704,
      "componentType": 5126,
      "count": 460,
      "max": [
        0.99861037731170654,
        1,
        0.99861037731170654
      ],
      "min": [
        -0.99861037731170654,
        -1,
        -0.99861037731170654
      ],
      "type": "VEC3"
    },
    {
      "bufferView": 3,
      "byteOffset": 39456,
      "componentType": 5126,
      "count": 460,
      "max": [
        0.99999994039535522,
        0.79670828580856323,
        0.40583187341690063,
        1
      ],
      "min": [
        -1,
        -1,
        -0.5691993236541748,
        -1
      ],
      "type": "VEC4"
    },
    {
      "bufferView": 1,
      "byteOffset": 19728,
      "componentType": 5126,
      "count": 460,
      "max": [
        0.9901999831199646,
        0.99220001697540283
      ],
      "min": [
        0,
        0.017599999904632568
      ],
      "type": "VEC2"
    },
    {
      "bufferView": 0,
      "byteOffset": 38208,
      "componentType": 5125,
      "count": 1512,
      "max": [
        459
      ],
      "min": [
        0
      ],
      "type": "SCALAR"
    },
    {
      "bufferView": 2,
      "byteOffset": 70224,
      "componentType": 5126,
      "count": 245,
      "max": [
        -0.29039999842643738,
        -3.2706999778747559,
        1.7475999593734741
      ],
      "min": [
        -1.680400013923645,
        -7.0327000617980957,
        -5.1981000900268555
      ],
      "type": "VEC3"
    },
    {
      "bufferView": 2,
      "byteOffset": 73164,
      "componentType": 5126,
      "count": 245,
      "max": [
        0.99979311227798462,
        0.99777907133102417,
        0.99847036600112915
      ],
      "min": [
        -0.99954682588577271,
        -0.99777907133102417,
        -0.96432322263717651
      ],
      "type": "VEC3"
    },
    {
      "bufferView": 3,
      "byteOffset": 46816,
      "componentType": 5126,
      "count": 245,
      "max": [
        0.99999493360519409,
        0.97682255506515503,
        0.71551698446273804,
        1
      ],
      "min": [
        -0.99999493360519409,
        -0.99986881017684937,
        -0.99883383512496948,
        -1
      ],
      "type": "VEC4"
    },
    {
      "bufferView": 1,
      "byteOffset": 23408,
      "componentType": 5126,
      "count": 245,
      "max": [
        0.96880000829696655,
        0.98830002546310425
      ],
      "min": [
        0,
        0.015599999576807022
      ],
      "type": "VEC2"
    },
    {
      "bufferView": 0,
      "byteOffset": 44256,
      "componentType": 5125,
      "count": 684,
      "max": [
        244
      ],
      "min": [
        0
      ],
      "type": "SCALAR"
    },
    {
      "bufferView": 2,
      "byteOffset": 76104,
      "componentType": 5126,
      "count": 4235,
      "max": [
        0.49149999022483826,
        16.373699188232422,
        3.5796000957489014
      ],
      "min": [
        -1.7553000450134277,
        -13.412899971008301,
        -1.819599986076355
      ],
      "type": "VEC3"
    },
    {
      "bufferView": 2,
      "byteOffset": 126924,
      "componentType": 5126,
      "count": 4235,
      "max": [
        1,
        1,
        1
      ],
      "min": [
        -1,
        -1,
        -1
      ],
      "type": "VEC3"
    },
    {
      "bufferView": 3,
      "byteOffset": 50736,
      "componentType": 5126,
      "count": 4235,
      "max": [
        1,
        1,
        1,
        1
      ],
      "min": [
        -1,
        -1,
        -1,
        -1
      ],
      "type": "VEC4"
    },
    {
      "bufferView": 1,
      "byteOffset": 25368,
      "componentType": 5126,
      "count": 4235,
      "max": [
        0.98629999160766602,
        0.99610000848770142
      ],
      "min": [
        0,
        0.0059000002220273018
      ],
      "type": "VEC2"
    },
    {
      "bufferView": 0,
      "byteOffset": 46992,
      "componentType": 5125,
      "count": 10611,
      "max": [
        4234
      ],
      "min": [
        0
      ],
      "type": "SCALAR"
    },
    {
      "bufferView": 2,
      "byteOffset": 177744,
      "componentType": 5126,
      "count": 934,
      "max": [
        0.044700000435113907,
        13.223699569702148,
        2.5395998954772949
      ],
      "min": [
        -2.0153000354766846,
        -14.25629997253418,
        -4.0303997993469238
      ],
      "type": "VEC3"
    },
    {
      "bufferView": 2,
      "byteOffset": 188952,
      "componentType": 5126,
      "count": 934,
      "max": [
        0.99984639883041382,
        0.99984687566757202,
        1
      ],
      "min": [
        -0.99984687566757202,
        -0.99984687566757202,
        -1
      ],
      "type": "VEC3"
    },
    {
      "bufferView": 3,
      "byteOffset": 118496,
      "componentType": 5126,
      "count": 934,
      "max": [
        1,
        0.99959689378738403,
        1,
        1
      ],
      "min": [
        -0.9998856782913208,
        -0.9999845027923584,
        -1,
        -1
      ],
      "type": "VEC4"
    },
    {
      "bufferView": 1,
      "byteOffset": 59248,
      "componentType": 5126,
      "count": 934,
      "max": [
        0.9901999831199646,
        0.99330002069473267
      ],
      "min": [
        0,
        0.0032999999821186066
      ],
      "type": "VEC2"
    },
    {
      "bufferView": 0,
      "byteOffset": 89436,
      "componentType": 5125,
      "count": 3300,
      "max": [
        933
      ],
      "min": [
        0
      ],
      "type": "SCALAR"
    },
    {
      "bufferView": 2,
      "byteOffset": 200160,
      "componentType": 5126,
      "count": 2024,
      "max": [
        0.024700000882148743,
        5.1237001419067383,
        6.0595998764038086
      ],
      "min": [
        -1.6952999830245972,
        -2.8763000965118408,
        3.3596000671386719
      ],
      "type": "VEC3"
    },
    {
      "bufferView": 2,
      "byteOffset": 224448,
      "componentType": 5126,
      "count": 2024,
      "max": [
        0.99984687566757202,
        0.99984687566757202,
        1
      ],
      "min": [
        -0.99984687566757202,
        -0.99994492530822754,
        -1
      ],
      "type": "VEC3"
    },
    {
      "bufferView": 3,
      "byteOffset": 133440,
      "componentType": 5126,
      "count": 2024,
      "max": [
        1,
        1,
        1,
        1
      ],
      "min": [
        -1,
        -1,
        -1,
        -1
      ],
      "type": "VEC4"
    },
    {
      "bufferView": 1,
      "byteOffset": 66720,
      "componentType": 5126,
      "count": 2024,
      "max": [
        0.99220001697540283,
        0.99800002574920654
      ],
      "min": [
        0,
        0.0020000000949949026
      ],
      "type": "VEC2"
    },
    {
      "bufferView": 0,
      "byteOffset": 102636,
      "componentType": 5125,
      "count": 5697,
      "max": [
        2023
      ],
      "min": [
        0
      ],
      "type": "SCALAR"
    }
  ],
  "asset": {
    "extras": {
      "author": "Xizt1997 (https://sketchfab.com/LOLYOU)",
      "license": "CC-BY-4.0 (http://creativecommons.org/licenses/by/4.0/)",
      "source": "https://sketchfab.com/models/37d206c752a04e4c9cb63f3a11743536",
      "title": "AUG A3 TACTICAL"
    },
    "generator": "Sketchfab-3.33.1",
    "version": "2.0"
  },
  "bufferViews": [
    {
      "buffer": 0,
      "byteLength": 125424,
      "byteOffset": 0,
      "name": "floatBufferViews",
      "target": 34963
    },
    {
      "buffer": 0,
      "byteLength": 82912,
      "byteOffset": 125424,
      "byteStride": 8,
      "name": "floatBufferViews",
      "target": 34962
    },
    {
      "buffer": 0,
      "byteLength": 248736,
      "byteOffset": 208336,
      "byteStride": 12,
      "name": "floatBufferViews",
      "target": 34962
    },
    {
      "buffer": 0,
      "byteLength": 165824,
      "byteOffset": 457072,
      "byteStride": 16,
      "name": "floatBufferViews",
      "target": 34962
    }
  ],
  "buffers": [
    {
      "byteLength": 622896,
      "uri": "scene.bin"
    }
  ],
  "extensionsUsed": [
    "KHR_materials_unlit"
  ],
  "images": [
    {
      "uri": "textures/Black.bmp_baseColor.png"
    },
    {
      "uri": "textures/mag_map.bmp_baseColor.png"
    },
    {
      "uri": "textures/ANPEQ-2.bmp_baseColor.png"
    },
    {
      "uri": "textures/map2.bmp_baseColor.png"
    },
    {
      "uri": "textures/map1.bmp_baseColor.png"
    },
    {
      "uri": "textures/scopemap.bmp_baseColor.png"
    }
  ],
  "materials": [
    {
      "doubleSided": true,
      "emissiveFactor": [
        0,
        0,
        0
      ],
      "extensions": {
        "KHR_materials_unlit": {}
      },
      "name": "ANPEQ-2.bmp",
      "pbrMetallicRoughness": {
        "baseColorFactor": [
          1,
          1,
          1,
          1
        ],
        "baseColorTexture": {
          "index": 2,
          "texCoord": 0
        },
        "metallicFactor": 0,
        "roughnessFactor": 1
      }
    },
    {
      "doubleSided": true,
      "emissiveFactor": [
        0,
        0,
        0
      ],
      "extensions": {
        "KHR_materials_unlit": {}
      },
      "name": "Black.bmp",
      "pbrMetallicRoughness": {
        "baseColorFactor": [
          1,
          1,
          1,
          1
        ],
        "baseColorTexture": {
          "index": 0,
          "texCoord": 0
        },
        "metallicFactor": 0,
        "roughnessFactor": 1
      }
    },
    {
      "doubleSided": true,
      "emissiveFactor": [
        0,
        0,
        0
      ],
      "extensions": {
        "KHR_materials_unlit": {}
      },
      "name": "mag_map.bmp",
      "pbrMetallicRoughness": {
        "baseColorFactor": [
          1,
          1,
          1,
          1
        ],
        "baseColorTexture": {
          "index": 1,
          "texCoord": 0
        },
        "metallicFactor": 0,
        "roughnessFactor": 1
      }
    },
    {
      "doubleSided": true,
      "emissiveFactor": [
        0,
        0,
        0
      ],
      "extensions": {
        "KHR_materials_unlit": {}
      },
      "name": "map1.bmp",
      "pbrMetallicRoughness": {
        "baseColorFactor": [
          1,
          1,
          1,
          1
        ],
        "baseColorTexture": {
          "index": 4,
          "texCoord": 0
        },
        "metallicFactor": 0,
        "roughnessFactor": 1
      }
    },
    {
      "doubleSided": true,
      "emissiveFactor": [
        0,
        0,
        0
      ],
      "extensions": {
        "KHR_materials_unlit": {}
      },
      "name": "map2.bmp",
      "pbrMetallicRoughness": {
        "baseColorFactor": [
          1,
          1,
          1,
          1
        ],
        "baseColorTexture": {
          "index": 3,
          "texCoord": 0
        },
        "metallicFactor": 0,
        "roughnessFactor": 1
      }
    },
    {
      "doubleSided": true,
      "emissiveFactor": [
        0,
        0,
        0
      ],
      "extensions": {
        "KHR_materials_unlit": {}
      },
      "name": "scopemap.bmp",
      "pbrMetallicRoughness": {
        "baseColorFactor": [
          1,
          1,
          1,
          1
        ],
        "baseColorTexture": {
          "index": 5,
          "texCoord": 0
        },
        "metallicFactor": 0,
        "roughnessFactor": 1
      }
    }
  ],
  "meshes": [
    {
      "primitives": [
        {
          "attributes": {
            "NORMAL": 1,
            "POSITION": 0,
            "TANGENT": 2,
            "TEXCOORD_0": 3
          },
          "indices": 4,
          "material": 0,
          "mode": 4
        }
      ]
    },
    {
      "primitives": [
        {
          "attributes": {
            "NORMAL": 6,
            "POSITION": 5,
            "TANGENT": 7,
            "TEXCOORD_0": 8
          },
          "indices": 9,
          "material": 1,
          "mode": 4
        }
      ]
    },
    {
      "primitives": [
        {
          "attributes": {
            "NORMAL": 11,
            "POSITION": 10,
            "TANGENT": 12,
            "TEXCOORD_0": 13
          },
          "indices": 14,
          "material": 2,
          "mode": 4
        }
      ]
    },
    {
      "primitives": [
        {
          "attributes": {
            "NORMAL": 16,
            "POSITION": 15,
            "TANGENT": 17,
            "TEXCOORD_0": 18
          },
          "indices": 19,
          "material": 3,
          "mode": 4
        }
      ]
    },
    {
      "primitives": [
        {
          "attributes": {
            "NORMAL": 21,
            "POSITION": 20,
            "TANGENT": 22,
            "TEXCOORD_0": 23
          },
          "indices": 24,
          "material": 4,
          "mode": 4
        }
      ]
    },
    {
      "primitives": [
        {
          "attributes": {
            "NORMAL": 26,
            "POSITION": 25,
            "TANGENT": 27,
            "TEXCOORD_0": 28
          },
          "indices": 29,
          "material": 5,
          "mode": 4
        }
      ]
    }
  ],
  "nodes": [
    {
      "children": [
        1
      ],
      "name": "RootNode (gltf orientation matrix)",
      "rotation": [
        -0.70710678118654746,
        -0,
        -0,
        0.70710678118654757
      ]
    },
    {
      "children": [
        2
      ],
      "name": "RootNode (model correction matrix)"
    },
    {
      "children": [
        3,
        4,
        5,
        6,
        7,
        8
      ],
      "name": "AUG A3 TACTICAL.obj.cleaner.materialmerger.gles"
    },
    {
      "mesh": 0,
      "name": ""
    },
    {
      "mesh": 1,
      "name": ""
    },
    {
      "mesh": 2,
      "name": ""
    },
    {
      "mesh": 3,
      "name": ""
    },
    {
      "mesh": 4,
      "name": ""
    },
    {
      "mesh": 5,
      "name": ""
    }
  ],
  "samplers": [
    {
      "magFilter": 9729,
      "minFilter": 9987,
      "wrapS": 10497,
      "wrapT": 10497
    }
  ],
  "scene": 0,
  "scenes": [
    {
      "name": "OSG_Scene",
      "nodes": [
        0
      ]
    }
  ],
  "textures": [
    {
      "sampler": 0,
      "source": 0
    },
    {
      "sampler": 0,
      "source": 1
    },
    {
      "sampler": 0,
      "source": 2
    },
    {
      "sampler": 0,
      "source": 3
    },
    {
      "sampler": 0,
      "source": 4
    },
    {
      "sampler": 0,
      "source": 5
    }
  ]
}

